<svg width="16" height="16" viewBox="0 0 16 16" fill="none" xmlns="http://www.w3.org/2000/svg">
<path d="M2.75 4.11111H1.875C1.39175 4.11111 1 4.45933 1 4.88889C1 5.31844 1.39175 5.66667 1.875 5.66667H2.75M2.75 10.3333H1.875C1.39175 10.3333 1 10.6816 1 11.1111C1 11.5407 1.39175 11.8889 1.875 11.8889H2.75M15 12.7631C13.8059 10.8502 11.5105 9.55556 8.875 9.55556C6.23948 9.55556 3.94414 10.8502 2.75 12.7631M5.55 15H12.2C13.1801 15 13.6701 15 14.0445 14.8305C14.3738 14.6813 14.6415 14.4433 14.8093 14.1507C15 13.8179 15 13.3823 15 12.5111V3.48889C15 2.6177 15 2.1821 14.8093 1.84935C14.6415 1.55665 14.3738 1.31868 14.0445 1.16955C13.6701 1 13.1801 1 12.2 1H5.55C4.56991 1 4.07986 1 3.70552 1.16955C3.37623 1.31868 3.10852 1.55665 2.94074 1.84935C2.75 2.1821 2.75 2.6177 2.75 3.48889V12.5111C2.75 13.3823 2.75 13.8179 2.94074 14.1507C3.10852 14.4433 3.37623 14.6813 3.70552 14.8305C4.07986 15 4.56991 15 5.55 15ZM11.5329 6.47375C11.5329 7.7786 10.3429 8.83638 8.87491 8.83638C7.40695 8.83638 6.21694 7.7786 6.21694 6.47375C6.21694 5.1689 7.40695 4.11111 8.87491 4.11111C10.3429 4.11111 11.5329 5.1689 11.5329 6.47375Z" stroke="white" stroke-width="1.5"/>
</svg>
