<svg id="Layer_1" data-name="Layer 1" xmlns="http://www.w3.org/2000/svg" viewBox="0 0 14.36 15.46"><defs><style>.cls-1{fill:#fff;}</style></defs><path class="cls-1" d="M5,10.71l.38-.46-3.75-4s-.3-.37.33-.66a2.82,2.82,0,0,1,1.17-.25s2-.21,2.31,1,1,3.22,1,3.22L7,9.34l-.94-3s-.32-.49.46-.76a3.78,3.78,0,0,1,2.73,0c.85.42.53.66.53.66l-1,3.14.64.21,1.1-3.48s.16-.76,2.33-.78c0,0,2.53.32.87,1.46l-3.28,3.51.4.45c1-1,1.83-1.88,2.48-2.51,1.11-1.06,1.51-1.39,1.69-2a3.8,3.8,0,0,0-1-3.13,6.94,6.94,0,0,0-1.48-1.4A8.08,8.08,0,0,0,7.81.28a7.53,7.53,0,0,0-3.6.79,6.26,6.26,0,0,0-3,2.84,3.34,3.34,0,0,0-.45,2c.07.54.31,1.08,2,2.77C3.34,9.18,4.08,9.9,5,10.71Z" transform="translate(-0.78 -0.27)"/><circle class="cls-1" cx="7.18" cy="12.53" r="2.93"/></svg>