<svg width="18" height="18" viewBox="0 0 18 18" fill="none" xmlns="http://www.w3.org/2000/svg">
<path d="M14.6923 0.658642C14.2712 0.236892 13.7004 0 13.1053 0C12.5101 0 11.9393 0.236892 11.5182 0.658642L8.92949 3.24858C8.81878 2.74833 8.54125 2.3009 8.14274 1.98016C7.74422 1.65942 7.24854 1.48455 6.73755 1.48442H2.24585C1.65021 1.48442 1.07897 1.7217 0.657794 2.14405C0.236616 2.56641 0 3.13924 0 3.73655V15.7449C0 16.5106 0.381794 17.1892 0.964218 17.5946C1.32805 17.8499 1.77272 18 2.25034 18H14.2282C14.8238 18 15.3951 17.7627 15.8163 17.3404C16.2374 16.918 16.4741 16.3452 16.4741 15.7479V11.2436C16.4739 10.7444 16.3084 10.2594 16.0035 9.86482C15.6986 9.47021 15.2717 9.18837 14.7897 9.06357L17.3424 6.49915C17.7635 6.07682 18 5.50408 18 4.9069C18 4.30972 17.7635 3.73698 17.3424 3.31465L14.6923 0.65714V0.658642ZM8.9834 6.61926L11.349 8.9915H8.9834V6.61926ZM7.48616 8.9915H1.49723V3.73655C1.49723 3.53744 1.5761 3.3465 1.7165 3.20571C1.85689 3.06493 2.0473 2.98584 2.24585 2.98584H6.73755C6.93609 2.98584 7.12651 3.06493 7.2669 3.20571C7.40729 3.3465 7.48616 3.53744 7.48616 3.73655V8.9915ZM1.81764 16.3635C1.71958 16.2938 1.63968 16.2015 1.58469 16.0944C1.52971 15.9872 1.50125 15.8684 1.50172 15.7479V10.4929H7.48616V16.4956H2.24585C2.09264 16.4958 1.9431 16.4486 1.81764 16.3605V16.3635ZM8.9834 16.4986V10.4929H14.2282C14.4267 10.4929 14.6172 10.572 14.7576 10.7128C14.8979 10.8536 14.9768 11.0445 14.9768 11.2436V15.7479C14.9768 15.947 14.8979 16.1379 14.7576 16.2787C14.6172 16.4195 14.4267 16.4986 14.2282 16.4986H8.9834Z" fill="white"/>
</svg>
