<svg width="32" height="33" viewBox="0 0 32 33" fill="none" xmlns="http://www.w3.org/2000/svg">
<path d="M15.7945 0.5C9.1244 0.5 4.56024 4.71271 3.11193 6.81907H20.7266C21.1963 6.3705 22.2415 5.39143 22.6642 5.06377C23.087 4.73612 23.545 4.92725 23.7211 5.06377L25.4826 6.81907H29.0055C27.381 4.71271 22.4646 0.5 15.7945 0.5Z" fill="white"/>
<path d="M16.8514 11.2073H0.880734C0.364037 12.3775 0.0782875 14.3473 0 15.186H15.1486L16.4404 13.7818C17.3798 12.6584 18.0844 13.3137 18.3193 13.7818L19.7284 15.186H32C32 13.8286 31.4911 11.9679 31.2367 11.2073H21.5486C21.1572 10.7392 20.2804 9.70946 19.9046 9.335C19.5288 8.96054 18.926 9.17897 18.6716 9.335C18.3388 9.72506 17.6382 10.552 17.4972 10.7392C17.3563 10.9265 17.008 11.1293 16.8514 11.2073Z" fill="white"/>
<path d="M10.3927 19.5157H0.352294C0.352294 20.6859 1.21346 22.6168 1.64404 23.4359H9.33578L10.6862 22.0902C11.7666 21.0136 12.3498 21.6416 12.5064 22.0902C13.258 23.1199 13.8373 23.4164 14.033 23.4359H30.4734C30.9431 23.0614 31.5303 20.6664 31.7651 19.5157H15.7945C15.5009 19.1257 14.7963 18.2285 14.3266 17.7604C13.8569 17.2923 13.1523 17.5654 12.8587 17.7604C12.0132 19.2115 10.8624 19.5352 10.3927 19.5157Z" fill="white"/>
<path d="M10.0404 27.3561H27.7138C23.6741 32.0837 17.6538 32.7195 15.1486 32.4464C10.2165 32.6337 5.85199 29.1309 4.28624 27.3561C4.84991 27.3561 5.34312 27.044 5.51927 26.888L6.81101 25.4837C7.09284 25.2029 7.67217 25.3667 7.92661 25.4837C9.00697 27.122 9.78593 27.4146 10.0404 27.3561Z" fill="white"/>
</svg>
