<svg width="38" height="35" viewBox="0 0 38 35" fill="none" xmlns="http://www.w3.org/2000/svg">
<path d="M17.8768 33.9029C17.8831 33.7641 17.917 33.6281 17.9764 33.5025C18.0358 33.3769 18.1197 33.2643 18.2231 33.1713C18.3265 33.0782 18.4474 33.0066 18.5787 32.9605C18.7101 32.9143 18.8493 32.8946 18.9884 32.9026C19.1274 32.9105 19.2635 32.9458 19.3888 33.0065C19.5141 33.0673 19.626 33.1522 19.7181 33.2563C19.8102 33.3605 19.8806 33.4818 19.9254 33.6134C19.9701 33.7449 19.9882 33.8839 19.9787 34.0224C19.9597 34.298 19.8324 34.555 19.6246 34.7377C19.4168 34.9204 19.1451 35.014 18.8684 34.9983C18.5918 34.9826 18.3326 34.8587 18.1469 34.6537C17.9613 34.4486 17.8642 34.1788 17.8768 33.9029V33.9029ZM9.25522 32.7673C9.37566 32.5844 9.56406 32.4567 9.77897 32.4122C9.99387 32.3678 10.2177 32.4103 10.4012 32.5304C10.5846 32.6505 10.7127 32.8383 10.7573 33.0526C10.8019 33.2668 10.7593 33.49 10.6388 33.6729C10.5792 33.7635 10.5022 33.8414 10.4123 33.9024C10.3224 33.9633 10.2214 34.006 10.115 34.028C10.0086 34.0499 9.89886 34.0508 9.79211 34.0305C9.68535 34.0103 9.58364 33.9692 9.49279 33.9097C9.40194 33.8503 9.32373 33.7735 9.26263 33.6839C9.20152 33.5943 9.15872 33.4936 9.13666 33.3875C9.1146 33.2814 9.11371 33.172 9.13405 33.0656C9.1544 32.9591 9.19557 32.8577 9.25522 32.7672V32.7673ZM27.7473 32.4438C27.8443 32.3949 27.95 32.3655 28.0584 32.3573C28.1668 32.3492 28.2757 32.3625 28.379 32.3964C28.4822 32.4303 28.5777 32.4842 28.66 32.555C28.7424 32.6258 28.8099 32.7121 28.8587 32.8089C28.9324 32.9546 28.9611 33.1188 28.9412 33.2808C28.9213 33.4428 28.8537 33.5953 28.7469 33.7189C28.6401 33.8426 28.4989 33.9319 28.3412 33.9755C28.1835 34.0192 28.0163 34.0152 27.8608 33.9642C27.7054 33.9131 27.5686 33.8172 27.4678 33.6886C27.367 33.56 27.3067 33.4045 27.2946 33.2418C27.2824 33.0791 27.3189 32.9164 27.3995 32.7743C27.4801 32.6323 27.6011 32.5173 27.7473 32.4438V32.4438ZM11.2538 28.4006C11.4394 28.118 11.7299 27.9205 12.0616 27.8514C12.3932 27.7824 12.7388 27.8475 13.0223 28.0324C13.3057 28.2177 13.5038 28.5077 13.573 28.8385C13.6422 29.1694 13.5769 29.5141 13.3913 29.7969C13.2046 30.0772 12.9142 30.2725 12.5836 30.3401C12.2529 30.4077 11.9089 30.3421 11.6266 30.1577C11.3443 29.9733 11.1467 29.685 11.0768 29.3558C11.0069 29.0266 11.0706 28.6832 11.2538 28.4006V28.4006ZM25.1513 27.9306C25.3008 27.8546 25.4638 27.8087 25.6311 27.7956C25.7984 27.7824 25.9667 27.8023 26.1262 27.8541C26.2858 27.9059 26.4336 27.9886 26.5611 28.0973C26.6886 28.2061 26.7933 28.3389 26.8693 28.4881C26.9836 28.7113 27.0293 28.9631 27.0009 29.2122C26.9724 29.4612 26.871 29.6963 26.7093 29.8882C26.5476 30.0801 26.3328 30.2202 26.0916 30.291C25.8505 30.3619 25.5938 30.3603 25.3536 30.2866C25.1133 30.2128 24.9002 30.0701 24.7408 29.8763C24.5815 29.6825 24.4829 29.4462 24.4575 29.1968C24.4321 28.9475 24.4809 28.6962 24.5979 28.4744C24.7148 28.2525 24.8948 28.07 25.1152 27.9495L25.1513 27.9306ZM17.5545 27.1524C17.6847 26.8854 17.8914 26.6629 18.1486 26.5131C18.4057 26.3634 18.7016 26.293 18.9988 26.3111C19.8259 26.3604 20.4569 27.0681 20.4093 27.893C20.3967 28.1146 20.3349 28.3306 20.2284 28.5256C20.1219 28.7205 19.9733 28.8894 19.7934 29.0201C19.6135 29.1509 19.4067 29.2401 19.188 29.2815C18.9693 29.3229 18.7441 29.3154 18.5286 29.2595C18.3132 29.2036 18.1129 29.1008 17.9421 28.9583C17.7714 28.8159 17.6345 28.6375 17.5413 28.4359C17.4481 28.2343 17.4009 28.0146 17.4032 27.7927C17.4055 27.5707 17.4572 27.352 17.5545 27.1524V27.1524ZM4.25004 24.8308C4.49862 24.7075 4.78601 24.6871 5.04963 24.774C5.31325 24.8609 5.53175 25.0482 5.65756 25.295C5.78336 25.5417 5.80627 25.8281 5.72131 26.0916C5.63635 26.3552 5.45039 26.5746 5.20392 26.7021C4.95746 26.8296 4.67046 26.8549 4.40541 26.7724C4.14036 26.6899 3.91872 26.5063 3.78877 26.2617C3.65882 26.0171 3.63107 25.7311 3.71157 25.4662C3.79207 25.2013 3.9743 24.9787 4.21857 24.8471L4.24989 24.8308H4.25004ZM32.4301 25.1294C32.5052 25.0126 32.6027 24.9118 32.7171 24.8329C32.8315 24.7539 32.9605 24.6984 33.0965 24.6694C33.2326 24.6404 33.3731 24.6387 33.5098 24.6642C33.6466 24.6897 33.7769 24.742 33.8933 24.818C34.0097 24.894 34.1098 24.9923 34.1878 25.1071C34.2658 25.222 34.3203 25.3511 34.348 25.487C34.3756 25.623 34.376 25.763 34.3491 25.8991C34.3221 26.0352 34.2684 26.1646 34.191 26.2799C34.0366 26.5096 33.7976 26.6694 33.5257 26.7244C33.2539 26.7795 32.9713 26.7253 32.7393 26.5737C32.5073 26.4221 32.3447 26.1854 32.2868 25.9149C32.2289 25.6445 32.2804 25.3622 32.4301 25.1294V25.1294ZM14.7796 20.4747C15.2806 20.205 15.8574 20.1097 16.4189 20.2037C16.9803 20.2977 17.4942 20.5758 17.8793 20.9939C18.2644 21.4119 18.4986 21.9461 18.5449 22.5118C18.5911 23.0775 18.4468 23.6425 18.1348 24.1172C17.9027 24.4724 17.5851 24.7639 17.211 24.9652C16.8368 25.1666 16.4181 25.2713 15.993 25.2698C15.4237 25.2693 14.8708 25.0796 14.4219 24.7306C13.973 24.3817 13.6536 23.8934 13.5144 23.3431C13.3751 22.7927 13.424 22.2118 13.6531 21.6923C13.8823 21.1728 14.2787 20.7443 14.7796 20.4747V20.4747ZM21.2429 20.2829C21.8233 20.0966 22.4514 20.1231 23.014 20.3577C23.5765 20.5922 24.0365 21.0194 24.3111 21.5623C24.9426 22.8187 24.4364 24.3479 23.1785 24.9827C22.8214 25.1633 22.4271 25.2587 22.0267 25.2615C21.4169 25.2615 20.8272 25.0443 20.3639 24.6492C19.9005 24.254 19.594 23.7069 19.4994 23.1063C19.4049 22.5058 19.5286 21.8913 19.8482 21.3736C20.1679 20.8559 20.6625 20.4691 21.2429 20.2829V20.2829ZM8.92361 21.6992C9.06872 21.531 9.24943 21.3971 9.45272 21.307C9.65601 21.2169 9.87681 21.1729 10.0992 21.1781C10.3216 21.1833 10.5401 21.2376 10.7389 21.3372C10.9377 21.4367 11.1119 21.579 11.2489 21.7537C11.3859 21.9285 11.4824 22.1314 11.5313 22.3477C11.5802 22.5641 11.5803 22.7886 11.5317 23.0051C11.4831 23.2215 11.387 23.4245 11.2502 23.5995C11.1134 23.7744 10.9395 23.9169 10.7408 24.0167C10.4301 24.1728 10.0747 24.2168 9.73517 24.141C9.39565 24.0652 9.09297 23.8744 8.87868 23.6011C8.6644 23.3278 8.55176 22.9889 8.55995 22.6421C8.56814 22.2953 8.69666 21.9621 8.92361 21.6992V21.6992ZM26.6989 21.8146C27.1547 21.1221 28.0874 20.9293 28.7818 21.3839C29.475 21.8395 29.6679 22.768 29.2137 23.4607C28.7579 24.153 27.8252 24.3459 27.1308 23.8914C26.4363 23.4367 26.2429 22.5071 26.6989 21.8146ZM10.4053 17.3782C10.4852 15.991 11.6638 14.923 13.0564 14.9757C14.4488 15.0283 15.5427 16.1824 15.5172 17.5715C15.492 18.9448 14.3811 20.0486 13.0091 20.0746L12.9622 20.0751H12.8223C11.4254 19.9937 10.3548 18.8115 10.4101 17.423L10.4123 17.3767L10.4053 17.3782V17.3782ZM22.4748 17.3495C22.5558 15.9428 23.7655 14.8679 25.1764 14.9487C25.5115 14.9658 25.8399 15.0493 26.1423 15.1944C26.4448 15.3394 26.7152 15.543 26.9379 15.7933C27.2638 16.1571 27.4782 16.6064 27.5558 17.0879C27.6334 17.5695 27.5709 18.0632 27.3757 18.5104C27.1805 18.9576 26.8608 19.3397 26.4544 19.6112C26.048 19.8828 25.5721 20.0325 25.083 20.0427L25.0309 20.0433H24.8826C23.4717 19.9624 22.3936 18.7564 22.4746 17.3498L22.4748 17.3495ZM4.31832 17.4655C4.33754 17.1282 4.49033 16.8124 4.74308 16.5874C4.99584 16.3625 5.32786 16.2468 5.66614 16.2659C6.00455 16.2853 6.3214 16.4378 6.54706 16.69C6.77273 16.9422 6.88876 17.2734 6.86967 17.6108C6.85034 17.9481 6.6974 18.264 6.4445 18.4889C6.1916 18.7138 5.85944 18.8293 5.52111 18.81C5.18279 18.7907 4.86599 18.6383 4.64042 18.3861C4.41486 18.134 4.29899 17.8028 4.31832 17.4655V17.4655ZM31.129 17.4078C31.15 17.0718 31.3036 16.7577 31.5561 16.5342C31.8087 16.3107 32.1397 16.196 32.4768 16.2151C32.8139 16.2342 33.1298 16.3856 33.3553 16.6362C33.5808 16.8868 33.6977 17.2161 33.6804 17.5524C33.6609 17.8898 33.5079 18.2057 33.255 18.4308C33.002 18.6558 32.6698 18.7715 32.3314 18.7525C31.9931 18.7331 31.6764 18.5805 31.451 18.3284C31.2255 18.0763 31.1097 17.7452 31.129 17.4079V17.4078ZM0.841464 16.7289L0.872339 16.7301C0.980839 16.736 1.08711 16.7632 1.18503 16.8101C1.28296 16.8571 1.37063 16.9228 1.44298 17.0037C1.51534 17.0845 1.57097 17.1787 1.60668 17.2811C1.64238 17.3834 1.65746 17.4917 1.65104 17.5999C1.64173 17.7612 1.58505 17.9161 1.48807 18.0456C1.39108 18.175 1.25807 18.2731 1.10558 18.3277C0.953093 18.3824 0.787859 18.3911 0.630439 18.3528C0.473018 18.3145 0.330363 18.2309 0.220222 18.1124C0.110081 17.994 0.0373168 17.8458 0.0109839 17.6864C-0.015349 17.527 0.00591169 17.3634 0.0721205 17.2159C0.138329 17.0685 0.246563 16.9437 0.383355 16.8571C0.520147 16.7705 0.679458 16.7259 0.841464 16.7289V16.7289ZM37.1856 16.6438L37.22 16.6452C37.439 16.6581 37.6439 16.757 37.7899 16.9203C37.9358 17.0836 38.0109 17.2979 37.9987 17.5163C37.9894 17.6777 37.9327 17.8329 37.8356 17.9624C37.7386 18.092 37.6055 18.1903 37.4529 18.2451C37.3003 18.2999 37.1349 18.3087 36.9773 18.2706C36.8196 18.2324 36.6767 18.1489 36.5663 18.0304C36.4559 17.912 36.3829 17.7638 36.3562 17.6043C36.3296 17.4447 36.3506 17.2809 36.4166 17.1332C36.4825 16.9855 36.5906 16.8603 36.7273 16.7733C36.864 16.6863 37.0234 16.6413 37.1856 16.6438V16.6438ZM15.9707 9.76094C16.4441 9.75871 16.9088 9.88791 17.3128 10.1341C17.7167 10.3802 18.0439 10.7337 18.2578 11.1547C18.4554 11.5439 18.5497 11.977 18.5316 12.4128C18.5136 12.8486 18.3838 13.2725 18.1547 13.644C17.9256 14.0156 17.6048 14.3224 17.2229 14.5352C16.841 14.748 16.4108 14.8596 15.9734 14.8595C15.4989 14.8609 15.0335 14.7303 14.6294 14.4824C14.2254 14.2344 13.8988 13.8789 13.6864 13.4559C13.4911 13.0671 13.3986 12.6351 13.4178 12.2007C13.437 11.7663 13.5672 11.344 13.796 10.9739C14.0248 10.6037 14.3447 10.298 14.7253 10.0858C15.1059 9.87348 15.5346 9.76167 15.9707 9.76094V9.76094ZM22.0057 9.74289C22.5749 9.74364 23.1277 9.93363 23.5764 10.2828C24.0251 10.632 24.3442 11.1204 24.4832 11.6707C24.6222 12.2211 24.5732 12.8019 24.3438 13.3213C24.1144 13.8407 23.7179 14.269 23.2169 14.5385C22.7159 14.8079 22.1391 14.903 21.5778 14.8089C21.0165 14.7147 20.5027 14.4365 20.1177 14.0185C19.7328 13.6004 19.4987 13.0663 19.4525 12.5006C19.4063 11.935 19.5506 11.3701 19.8626 10.8955C20.0958 10.5411 20.4138 10.2502 20.788 10.049C21.1621 9.84778 21.5806 9.74258 22.0057 9.74289V9.74289ZM8.78363 11.5563C9.23919 10.8636 10.1715 10.6702 10.8662 11.1244C11.5609 11.5785 11.7549 12.5082 11.2997 13.2008C10.8441 13.8934 9.91176 14.0869 9.21707 13.6329C9.05168 13.5251 8.90925 13.3858 8.79793 13.223C8.68661 13.0602 8.60859 12.8771 8.56833 12.6842C8.52807 12.4913 8.52636 12.2924 8.5633 12.0989C8.60025 11.9053 8.67512 11.7209 8.78363 11.5563V11.5563ZM27.2594 11.0001C27.4358 10.9113 27.628 10.858 27.8251 10.8434C28.0221 10.8287 28.2202 10.853 28.4078 10.9147C28.5955 10.9765 28.769 11.0745 28.9186 11.2032C29.0682 11.332 29.1909 11.4888 29.2796 11.6649C29.6532 12.4047 29.3546 13.3064 28.6127 13.6791C27.8707 14.0516 26.9662 13.7538 26.5925 13.0141C26.2188 12.2743 26.5175 11.3726 27.2594 10.9999V11.0001ZM3.80814 8.73786C3.96123 8.50507 4.20079 8.34244 4.47414 8.28575C4.60949 8.25768 4.74906 8.25647 4.88488 8.28218C5.0207 8.30788 5.15011 8.36001 5.26573 8.43559C5.38134 8.51116 5.48089 8.60869 5.5587 8.72262C5.63651 8.83656 5.69104 8.96465 5.7192 9.09959C5.74735 9.23454 5.74857 9.37369 5.72278 9.5091C5.697 9.64452 5.64471 9.77354 5.56891 9.88881C5.41583 10.1216 5.17626 10.2842 4.90291 10.3409C4.62956 10.3976 4.34482 10.3437 4.11133 10.1911C3.87783 10.0385 3.71472 9.79961 3.65786 9.52708C3.601 9.25455 3.65506 8.97066 3.80814 8.73786V8.73786ZM32.7998 8.31312C33.0487 8.19172 33.3355 8.17301 33.5981 8.26106C33.8607 8.34911 34.0779 8.5368 34.2026 8.78345C34.3273 9.0301 34.3494 9.31582 34.2642 9.57865C34.179 9.84147 33.9934 10.0602 33.7475 10.1875C33.4979 10.3126 33.2087 10.3339 32.9434 10.2466C32.6782 10.1593 32.4585 9.97055 32.3327 9.72187C32.2073 9.47327 32.1861 9.1852 32.2737 8.92101C32.3613 8.65681 32.5505 8.43811 32.7998 8.31297V8.31312ZM17.4735 7.12384C17.521 6.2973 18.2317 5.66551 19.0609 5.71257C19.8899 5.75964 20.5239 6.46779 20.477 7.29463C20.4302 8.12117 19.7202 8.75355 18.8911 8.70723C18.0611 8.66002 17.4266 7.95128 17.4735 7.12384V7.12384ZM11.6957 4.81114C11.8455 4.73586 12.0088 4.69075 12.1761 4.67837C12.3435 4.666 12.5116 4.6866 12.671 4.73902C12.8303 4.79143 12.9778 4.87463 13.1049 4.98385C13.232 5.09307 13.3363 5.22619 13.4118 5.37559C13.4873 5.525 13.5325 5.68777 13.5449 5.85461C13.5574 6.02145 13.5367 6.1891 13.4841 6.34797C13.4315 6.50685 13.3481 6.65385 13.2385 6.78057C13.129 6.9073 12.9955 7.01127 12.8456 7.08655C12.543 7.23858 12.1922 7.26453 11.8703 7.15867C11.5485 7.05282 11.282 6.82384 11.1295 6.5221C10.977 6.22036 10.951 5.87059 11.0572 5.54972C11.1634 5.22886 11.393 4.96318 11.6957 4.81114V4.81114ZM24.6032 5.2199C24.7416 5.00885 24.9397 4.84344 25.1724 4.74458C25.405 4.64572 25.6619 4.61785 25.9104 4.6645C26.159 4.71115 26.3881 4.83022 26.5688 5.00665C26.7495 5.18309 26.8737 5.40897 26.9256 5.65576C26.9776 5.90254 26.955 6.15914 26.8607 6.39313C26.7664 6.62712 26.6047 6.82799 26.3959 6.97035C26.1872 7.11271 25.9408 7.19017 25.6879 7.19294C25.435 7.19571 25.1869 7.12366 24.9751 6.98591C24.8341 6.89448 24.7127 6.77622 24.6177 6.6379C24.5227 6.49958 24.456 6.34393 24.4215 6.17986C24.3869 6.0158 24.3852 5.84655 24.4164 5.68182C24.4476 5.51709 24.5111 5.36012 24.6032 5.2199V5.2199ZM9.4994 1.10242C9.69481 1.00487 9.921 0.988338 10.1286 1.05645C10.3362 1.12456 10.5083 1.27177 10.6074 1.46596C10.7066 1.66015 10.7246 1.88554 10.6577 2.09296C10.5907 2.30037 10.4442 2.47295 10.25 2.57304C10.1527 2.62269 10.0464 2.65263 9.93731 2.66114C9.82826 2.66965 9.7186 2.65656 9.61464 2.62262C9.51069 2.58868 9.4145 2.53457 9.33161 2.4634C9.24873 2.39222 9.18079 2.3054 9.13172 2.20794C9.03384 2.01266 9.01758 1.78666 9.0865 1.57945C9.15541 1.37224 9.30389 1.20071 9.4994 1.10242V1.10242ZM27.3585 1.34513C27.418 1.25443 27.4948 1.17629 27.5846 1.11518C27.6743 1.05407 27.7753 1.01119 27.8816 0.988971C27.988 0.966756 28.0977 0.965649 28.2045 0.985711C28.3113 1.00577 28.4131 1.04661 28.5041 1.1059C28.5951 1.16519 28.6735 1.24176 28.7348 1.33124C28.796 1.42072 28.8391 1.52137 28.8613 1.62742C28.8836 1.73348 28.8847 1.84288 28.8646 1.94936C28.8445 2.05585 28.8035 2.15734 28.7441 2.24804C28.624 2.43122 28.4358 2.55935 28.221 2.60422C28.0062 2.6491 27.7823 2.60706 27.5986 2.48735C27.4148 2.36763 27.2863 2.18005 27.2413 1.96588C27.1963 1.7517 27.2385 1.52846 27.3585 1.34528V1.34513ZM18.6147 0.0635064C18.7457 0.0158875 18.8848 -0.00531548 19.0241 0.0011284C19.1634 0.00757229 19.3 0.0415347 19.426 0.101044C19.552 0.160553 19.6649 0.244424 19.7581 0.347786C19.8513 0.451149 19.923 0.571945 19.969 0.703162C20.015 0.834378 20.0345 0.973401 20.0261 1.11216C20.0178 1.25092 19.982 1.38665 19.9206 1.51147C19.8592 1.63629 19.7736 1.74772 19.6687 1.83928C19.5638 1.93084 19.4417 2.00072 19.3095 2.04485C19.047 2.13245 18.7605 2.11348 18.512 1.99204C18.2635 1.8706 18.0729 1.65647 17.9816 1.39598C17.8902 1.1355 17.9054 0.849625 18.0239 0.600244C18.1424 0.350862 18.3546 0.158037 18.6147 0.0635064V0.0635064Z" fill="white"/>
</svg>
