<svg id="Layer_1" data-name="Layer 1" xmlns="http://www.w3.org/2000/svg" viewBox="0 0 19.52 13.93"><defs><style>.cls-1{fill:#fff;}</style></defs><path class="cls-1" d="M.24,13A20.32,20.32,0,0,1,1,8.19,18.37,18.37,0,0,1,2.12,4.72a5.21,5.21,0,0,1,1.27-1.8A3.61,3.61,0,0,1,6.8,2.18a18.38,18.38,0,0,0,2,.46,9.31,9.31,0,0,0,4-.34,4.44,4.44,0,0,1,1.81-.25,3.7,3.7,0,0,1,2.73,1.64,10.5,10.5,0,0,1,1.33,3,25.73,25.73,0,0,1,1.08,5.13,7.93,7.93,0,0,1-.16,3l-.07.22a1.25,1.25,0,0,1-1.86.75,3.64,3.64,0,0,1-1-.65,8.26,8.26,0,0,1-1.2-1.31,3.12,3.12,0,0,0-2.59-1.32c-1.88-.06-3.75-.07-5.62,0a5.7,5.7,0,0,0-1,.13,2.37,2.37,0,0,0-1.42.86c-.34.41-.67.83-1,1.21a5.29,5.29,0,0,1-1.21,1,1.64,1.64,0,0,1-1,.23,1.16,1.16,0,0,1-.89-.68,4.47,4.47,0,0,1-.38-1.8A4.13,4.13,0,0,1,.24,13Z" transform="translate(-0.24 -2.03)"/><path class="cls-1" d="M4.45,5.88A1.73,1.73,0,1,1,2.72,7.55,1.72,1.72,0,0,1,4.45,5.88Z" transform="translate(-0.24 -2.03)"/><path class="cls-1" d="M13.34,5.76a.84.84,0,1,1,1.67,0,.84.84,0,1,1-1.67,0Z" transform="translate(-0.24 -2.03)"/><path class="cls-1" d="M12.33,6.77a.84.84,0,0,1,.85.84.85.85,0,1,1-1.69,0A.85.85,0,0,1,12.33,6.77Z" transform="translate(-0.24 -2.03)"/><path class="cls-1" d="M15.18,7.62A.83.83,0,0,1,16,6.77a.82.82,0,0,1,.84.83.84.84,0,1,1-1.67,0Z" transform="translate(-0.24 -2.03)"/><path class="cls-1" d="M13.34,9.46a.83.83,0,0,1,.83-.85.85.85,0,0,1,0,1.69A.83.83,0,0,1,13.34,9.46Z" transform="translate(-0.24 -2.03)"/></svg>