<svg xmlns="http://www.w3.org/2000/svg" viewBox="0 0 18.73 11.92"><defs><style>.cls-1{fill:#fff;}</style></defs><g id="Layer_2" data-name="Layer 2"><path class="cls-1" d="M.69,3.12H2.36V15H.69Zm.86,5.7H5.36a1.75,1.75,0,0,0,.95-.25A1.66,1.66,0,0,0,7,7.85a2.45,2.45,0,0,0,.23-1.08A2.45,2.45,0,0,0,7,5.69a1.71,1.71,0,0,0-1.59-1H1.55V3.12H5.31a3.78,3.78,0,0,1,1.87.45A3.23,3.23,0,0,1,8.44,4.85a4,4,0,0,1,.45,1.92,4,4,0,0,1-.45,1.92A3.14,3.14,0,0,1,7.18,10a3.78,3.78,0,0,1-1.87.45H1.55Z" transform="translate(-0.69 -3.12)"/><path class="cls-1" d="M11,3.12h1.67V15H11Zm1,5.25h6.62V10H12Zm5.73-5.25h1.67V15H17.75Z" transform="translate(-0.69 -3.12)"/></g></svg>