<svg width="26" height="26" viewBox="0 0 26 26" fill="none" xmlns="http://www.w3.org/2000/svg">
<path d="M10.8064 24C15.4851 24 19.3117 20.3513 19.5958 15.7441C19.6145 15.4407 19.3663 15.1936 19.0623 15.1936H11.3568C11.0528 15.1936 10.8064 14.9472 10.8064 14.6432V6.93765C10.8064 6.63368 10.5593 6.38547 10.2559 6.40418C5.64869 6.68834 2 10.5149 2 15.1936C2 20.0573 5.94275 24 10.8064 24Z" stroke="white" stroke-width="2.5"/>
<path d="M23.999 10.2399C23.7261 5.81481 20.1852 2.27393 15.7601 2.00099C15.4567 1.98228 15.2096 2.23049 15.2096 2.53447V10.24C15.2096 10.544 15.456 10.7904 15.76 10.7904L23.4655 10.7904C23.7695 10.7904 24.0177 10.5433 23.999 10.2399Z" stroke="white" stroke-width="2.5"/>
</svg>
