<svg width="40" height="32" viewBox="0 0 40 32" fill="none" xmlns="http://www.w3.org/2000/svg">
<path d="M17.7778 14.0067H21.6566V20.4714H17.7778V14.0067Z" fill="white"/>
<path d="M23.4141 20.8926C23.4141 21.2199 23.2843 21.5338 23.0532 21.7652C22.8221 21.9967 22.5087 22.1267 22.1818 22.1267H17.2525C16.9257 22.1267 16.6122 21.9967 16.3811 21.7652C16.15 21.5338 16.0202 21.2199 16.0202 20.8926V18.4242H0V29.5317C0 30.1863 0.259667 30.8141 0.721878 31.277C1.18409 31.7399 1.81098 32 2.46465 32H36.9697C37.6234 32 38.2503 31.7399 38.7125 31.277C39.1747 30.8141 39.4343 30.1863 39.4343 29.5317V18.4242H23.4141V20.8926Z" fill="white"/>
<path d="M39.077 10.3486L34.0368 5.29778C33.8072 5.06963 33.4974 4.94102 33.1741 4.93965H27.0125V2.53157C27.0292 1.88269 26.7904 1.2533 26.3476 0.779544C25.9048 0.305787 25.2937 0.0257481 24.6465 0H14.5907C14.2744 0.0124719 13.9639 0.088413 13.6774 0.223327C13.3909 0.358241 13.1344 0.549385 12.9229 0.785441C12.7115 1.0215 12.5495 1.29767 12.4465 1.5976C12.3435 1.89753 12.3016 2.21512 12.3232 2.53157V4.93965H6.26022C6.09804 4.93871 5.93727 4.96986 5.78712 5.03132C5.63698 5.09277 5.50042 5.18332 5.38527 5.29778L0.357394 10.3486C0.243181 10.464 0.15282 10.6008 0.0914944 10.7513C0.0301683 10.9017 -0.000917068 11.0628 2.05974e-05 11.2254V16.0539H16.0202V13.584C16.0202 13.2565 16.1501 12.9424 16.3812 12.7108C16.6123 12.4792 16.9257 12.3491 17.2525 12.3491H22.1818C22.5087 12.3491 22.8221 12.4792 23.0532 12.7108C23.2843 12.9424 23.4142 13.2565 23.4142 13.584V16.0539H39.4343V11.213C39.433 10.889 39.3046 10.5786 39.077 10.3486V10.3486ZM24.6465 4.93965H14.7879V2.46983H24.6465V4.93965Z" fill="white"/>
</svg>
