<svg width="20" height="18" viewBox="0 0 20 18" fill="none" xmlns="http://www.w3.org/2000/svg">
<g clip-path="url(#clip0_1_17)">
<path d="M2.97232 4.41708C3.01155 4.39985 3.04967 4.38121 3.08658 4.36261C3.10533 4.38486 3.12492 4.40614 3.14799 4.42654L5.3091 6.37198C5.44434 6.22922 5.64344 6.13929 5.85923 6.13929C5.9291 6.13929 5.99866 6.14831 6.06563 6.16626L6.33508 6.2384L6.50279 5.73062L4.10085 3.56872C4.06274 3.53481 4.02177 3.50632 3.97755 3.48195L3.9832 3.45959C3.9889 3.43903 3.9963 3.4236 4.00324 3.40585C4.00876 3.39258 4.0146 3.37867 4.02008 3.36408C4.02707 3.34994 4.03401 3.33491 4.041 3.31924C4.05294 3.29315 4.06563 3.26485 4.08193 3.23612L4.12704 3.15368L4.17843 3.072C4.20011 3.03449 4.2246 3.0019 4.25252 2.96463C4.26749 2.94491 4.28249 2.92439 4.29777 2.90359C4.31126 2.88736 4.32542 2.87081 4.33936 2.85366C4.37436 2.8121 4.407 2.77266 4.44245 2.73855L4.46721 2.71399C4.5141 2.66794 4.56099 2.62033 4.61558 2.57977C4.63295 2.56582 4.64604 2.555 4.65985 2.54402C4.67828 2.52855 4.69698 2.51276 4.71693 2.49861L4.8222 2.42976C4.82577 2.42791 4.82817 2.42591 4.83053 2.42383C4.87266 2.39357 4.9232 2.36792 4.97721 2.34083C4.99886 2.33021 5.01983 2.31966 5.04107 2.30828C5.08627 2.28219 5.13289 2.26532 5.1825 2.24745C5.20753 2.23799 5.23197 2.22901 5.257 2.21935C5.27138 2.21422 5.28612 2.20825 5.3006 2.20248C5.31631 2.19667 5.33177 2.18965 5.34749 2.18613L5.46327 2.15687C5.48624 2.15174 5.51296 2.14481 5.5399 2.13779C5.57753 2.12789 5.61396 2.11852 5.63845 2.11555L5.94838 2.07475C5.99349 2.06886 6.03343 2.04998 6.0642 2.02265C6.09778 1.99207 6.12031 1.95071 6.12347 1.90522C6.13011 1.8185 6.06888 1.73922 5.97635 1.71478L5.67091 1.63658C5.61779 1.62224 5.56137 1.61478 5.50699 1.60761C5.48277 1.60424 5.45801 1.60104 5.43183 1.59711L5.2981 1.57847C5.25615 1.57234 5.21683 1.57146 5.18183 1.57082C5.16807 1.57038 5.15418 1.57014 5.13971 1.56949C5.10471 1.56905 5.07932 1.56781 5.05314 1.56673C4.97526 1.5638 4.88717 1.56072 4.79357 1.5717L4.7343 1.57599C4.64471 1.58268 4.54211 1.59013 4.43906 1.61238L4.27385 1.64244C4.22305 1.65374 4.18052 1.66556 4.1379 1.6775L4.08576 1.69185C3.96628 1.72167 3.85331 1.76435 3.7439 1.80587L3.72889 1.81152C3.63506 1.84651 3.54988 1.88739 3.46754 1.92687L3.39923 1.95961C3.39447 1.96173 3.39081 1.96418 3.38605 1.96642C3.35964 1.98121 3.33261 1.9958 3.30638 2.01019C3.23509 2.04902 3.16086 2.08926 3.09228 2.13511L2.97802 2.20849C2.97561 2.21033 2.96439 2.21767 2.96158 2.21975L2.84852 2.30099C2.81806 2.32215 2.78996 2.34363 2.76302 2.36483C2.55938 2.39533 2.36372 2.48038 2.20684 2.62197L1.96472 2.83951C1.85326 2.93994 1.74871 3.08078 1.66258 3.23856C1.28305 3.17295 0.768054 3.67737 -8.58307e-06 4.36843L1.71749 5.91341C2.30632 5.38323 3.0457 4.75866 2.97232 4.41708Z" fill="white"/>
<path d="M16.44 4.32125L17.522 4.50962L18.6233 3.25816C18.8244 3.03108 19.1589 2.92712 19.471 2.99357V2.45465H17.8445V3.62571H16.0928L16.44 4.32125Z" fill="white"/>
<path d="M6.6208 4.63747L6.95469 3.62551H5.49676L6.6208 4.63747Z" fill="white"/>
<path d="M19.471 9.91928V6.1681C19.4418 6.20417 19.4128 6.2406 19.3816 6.27587C18.929 6.79035 18.3283 7.16062 17.655 7.3578H17.8451V9.91928H14.0326H13.4873L15.5293 7.41351C15.5663 7.37087 15.6004 7.32678 15.632 7.2817C16.7729 7.53904 18.0281 7.19629 18.8044 6.31447C19.3709 5.67078 19.5912 4.83974 19.4083 4.0339C19.388 3.94256 19.3101 3.8703 19.2097 3.8485C19.1087 3.8271 19.0032 3.85988 18.9386 3.9327L17.6224 5.42823L15.9113 5.1301L15.1968 3.69893L16.5136 2.20328C16.578 2.13034 16.5892 2.03014 16.5428 1.94702C16.4963 1.86358 16.4005 1.81212 16.2973 1.81473C15.3835 1.83898 14.5348 2.22192 13.9682 2.86556C13.1927 3.74694 13.1088 4.92438 13.6467 5.86464C13.606 5.90323 13.5661 5.94415 13.5276 5.98768L10.8852 8.81683L11.5247 9.39246C11.6904 9.54159 11.8062 9.7223 11.8682 9.91924H11.5831C11.531 9.79007 11.4486 9.66879 11.3331 9.56511L7.69568 6.29086L7.60114 6.57629L7.84762 6.6423C8.03309 6.69172 8.18596 6.80325 8.27805 6.95623C8.37005 7.10916 8.39049 7.2855 8.33545 7.45227C8.30575 7.54164 8.25476 7.62408 8.18743 7.69369C8.20644 7.84667 8.19197 8.00161 8.14187 8.15062L7.81524 9.14069L8.68029 9.91876H8.40313H7.7977H7.19012L7.83243 7.97255C7.8876 7.80687 7.88293 7.63779 7.83127 7.48373C7.92176 7.44217 7.99443 7.36847 8.02583 7.27376C8.08603 7.09029 7.9699 6.89711 7.76581 6.84281L7.19489 6.68983L8.74678 1.98874L8.79563 2.00181L9.19765 1.30134L9.35533 0.208864L8.68532 0.0299177L8.16387 1.02544L8.08011 1.81084L8.12972 1.82415L6.57778 6.52552L5.98357 6.36669C5.7802 6.31218 5.56516 6.41679 5.50473 6.60026C5.47561 6.68895 5.48759 6.77965 5.53074 6.85627C5.38779 6.96068 5.27647 7.10399 5.22 7.27484L4.34841 9.91928H3.76751H3.53296V7.35805H4.61296L4.806 6.77239C4.85463 6.62567 4.88789 6.58531 4.98488 6.46295L3.24138 4.85525C3.0026 5.15118 2.76619 5.45821 2.39846 5.78673L1.90684 6.22874V9.91928H1.37786V15.0427C1.37786 16.6592 2.83468 17.97 4.63109 17.97H16.7475C18.5441 17.97 20 16.6594 20 15.0427V9.91928H19.471ZM6.70363 8.09964C6.76775 7.90466 6.99535 7.79397 7.21199 7.85164C7.42769 7.90947 7.55131 8.11427 7.48696 8.30908L6.95585 9.91932H6.10304L6.70363 8.09964ZM5.38615 7.74748C5.45031 7.55282 5.67795 7.44185 5.89442 7.49952C6.11079 7.55731 6.2341 7.76207 6.16971 7.95676L5.52205 9.91932H4.66943L5.38615 7.74748Z" fill="white"/>
<path d="M8.81384 3.62551L8.18458 5.53191L10.214 7.35805H11.3018L13.111 5.42114C12.8626 4.84282 12.8064 4.2201 12.9295 3.62547L8.81384 3.62551Z" fill="white"/>
</g>
<defs>
<clipPath id="clip0_1_17">
<rect width="20" height="18" fill="white"/>
</clipPath>
</defs>
</svg>
