<svg id="Layer_1" data-name="Layer 1" xmlns="http://www.w3.org/2000/svg" viewBox="0 0 25.81 35.68"><defs><style>.cls-1{fill:#fff;}</style></defs><path class="cls-1" d="M32,15.53c-.26-3.88-3.57-5.27-7.78-5.75l.15-5.37L21.1,4.32,21,9.55l-2.61,0,.14-5.26-3.27-.09-.14,5.37c-.71,0-1.4,0-2.08,0h0L8.49,9.37,8.4,12.86s2.41,0,2.37.06a1.68,1.68,0,0,1,1.84,1.48l-.16,6.12.34,0h-.34l-.23,8.57A1.16,1.16,0,0,1,11,30.16s-2.37-.07-2.37-.07L7.83,34l4.26.11,2.33.08-.14,5.43,3.26.09.14-5.37,2.61.09-.14,5.35,3.27.09.14-5.42c5.51-.17,9.39-1.45,10-6.6.5-4.14-1.4-6-4.5-6.88A5.06,5.06,0,0,0,32,15.53ZM27.12,27c-.1,4.05-7,3.41-9.25,3.35l.19-7.2c2.21.06,9.18-.39,9.06,3.85Zm-1.25-10.2c-.1,3.7-5.88,3.11-7.72,3.06l.17-6.52c1.85.05,7.66-.39,7.55,3.46Z" transform="translate(-7.83 -4.16)"/></svg>