<svg width="50" height="50" viewBox="0 0 50 50" fill="none" xmlns="http://www.w3.org/2000/svg">
<rect width="50" height="50" rx="5" fill="#181A20"/>
<path fillRule="evenodd" clipRule="evenodd" d="M18.0085 22.1275L25 15.136L31.9948 22.1305L36.0628 18.0625L25 7L13.9408 18.0592L18.0087 22.1272L18.0085 22.1275ZM7 25L11.0681 20.9313L15.136 24.9991L11.0679 29.0673L7 25ZM25 34.864L18.0085 27.8729L13.935 31.935L13.9408 31.9408L25 43L36.0628 31.9376L36.0648 31.9355L31.9947 27.8696L25 34.864ZM34.864 25.0017L38.9321 20.9336L43 25.0014L38.932 29.0696L34.864 25.0017ZM29.2833 24.9978H29.2818L29.2857 24.9999L29.2836 25.0022L25.0001 29.2857L20.7203 25.0054L20.7143 24.9993L20.7203 24.9934L21.4704 24.2432L21.8341 23.8793L25.0001 20.7143L29.2833 24.9978Z" fill="#F0B90B"/>
</svg>
