<svg width="50" height="50" viewBox="0 0 50 50" fill="none" xmlns="http://www.w3.org/2000/svg">
<rect width="50" height="50" rx="5" fill="#3861FB"/>
<path d="M38.2966 28.511C38.0117 28.7044 37.6792 28.8186 37.334 28.8414C36.9888 28.8643 36.6438 28.7949 36.3352 28.6408C35.6109 28.2375 35.2205 27.292 35.2205 26.0035V22.0545C35.2205 20.1587 34.4586 18.81 33.184 18.4438C31.0298 17.8227 29.4212 20.4229 28.8004 21.4009L24.9906 27.4774V20.0614C24.9483 18.3511 24.3839 17.3268 23.3162 17.0209C22.6107 16.8169 21.5524 16.9003 20.5223 18.4484L12.0044 31.9224C10.8711 29.7856 10.2835 27.4087 10.2924 24.9977C10.2924 16.8772 16.8772 10.2723 24.9906 10.2723C33.104 10.2723 39.7123 16.8772 39.7123 24.9977V25.0394C39.7123 25.0394 39.7123 25.0672 39.7123 25.0811C39.7923 26.6524 39.2749 27.9038 38.3013 28.511H38.2966ZM43 25.0023V24.9235C42.9342 15.0278 34.8819 7 24.9906 7C15.0993 7 7 15.0742 7 24.9977C7 34.9212 15.0711 43 24.9906 43C29.5401 42.9998 33.9165 41.2813 37.2195 38.1981C37.5401 37.9005 37.7288 37.4903 37.7446 37.0565C37.7605 36.6227 37.6022 36.2003 37.3042 35.8806C37.1615 35.7252 36.9891 35.599 36.7968 35.5095C36.6045 35.4199 36.3962 35.3687 36.1837 35.3588C35.9713 35.3489 35.7589 35.3805 35.5589 35.4518C35.3589 35.523 35.1752 35.6325 35.0183 35.774C33.5963 37.1033 31.9163 38.1357 30.0793 38.8093C28.2423 39.4828 26.2862 39.7836 24.3283 39.6935C22.3704 39.6035 20.4511 39.1245 18.6858 38.2853C16.9204 37.4461 15.3453 36.264 14.0551 34.81L21.7217 22.6663V28.27C21.7217 30.9629 22.78 31.8343 23.6689 32.0892C24.5579 32.3441 25.9172 32.168 27.3423 29.8876L31.5754 23.1344C31.7071 22.9166 31.8341 22.7312 31.947 22.5689V26.0035C31.947 28.5203 32.9723 30.5319 34.769 31.5238C35.586 31.9584 36.5066 32.1684 37.4343 32.1317C38.362 32.095 39.2625 31.8129 40.0415 31.3152C42.017 30.0498 43.0941 27.7601 42.9812 25.0023H43Z" fill="white"/>
</svg>
