<svg width="50" height="50" viewBox="0 0 50 50" fill="none" xmlns="http://www.w3.org/2000/svg">
<rect x="1" y="1" width="48" height="48" rx="4" fill="#F9E988" stroke="#8DC63F" stroke-width="2"/>
<path d="M26.0018 2.19566C27.4716 1.93478 28.9759 1.93478 30.4457 2.19566C31.9296 2.43094 33.3641 2.91154 34.6902 3.61776C36.0091 4.3424 37.1485 5.3261 38.2826 6.2482C39.4167 7.1703 40.5453 8.11414 41.6196 9.14675C42.7163 10.1632 43.6733 11.3206 44.4656 12.5888C45.2811 13.847 45.9498 15.1945 46.4583 16.6051C47.4239 19.442 47.7591 22.4982 47.2772 25.413H47.1341C46.6504 22.5236 45.9946 19.7699 44.9601 17.1504C44.4745 15.8336 43.9033 14.5501 43.25 13.308C42.5686 12.059 41.8174 10.8493 41 9.68479C40.169 8.51176 39.1505 7.48353 37.9855 6.64131C36.8116 5.80436 35.462 5.26269 34.1558 4.7482C32.8496 4.23371 31.5543 3.70653 30.192 3.31523C28.8297 2.92392 27.4457 2.63044 26 2.34602L26.0018 2.19566Z" fill="white"/>
<path d="M32.75 15.5284C31.0725 15.0429 29.3333 14.3545 27.5725 13.6589C27.471 13.2169 27.0797 12.6661 26.288 11.994C25.1377 10.9958 22.9764 11.0212 21.1087 11.4632C19.0471 10.9777 17.0109 10.8056 15.0562 11.2821C-0.931156 15.6861 8.13406 26.4306 2.2645 37.2313C3.09964 39.0031 12.1015 49.34 25.1268 46.5665C25.1268 46.5665 20.6721 35.8618 30.7246 30.7241C38.8786 26.5411 44.7699 18.802 32.75 15.5284Z" fill="#8BC53F"/>
<path d="M34.7246 22.5592C34.7257 22.7509 34.6699 22.9386 34.5643 23.0986C34.4587 23.2586 34.308 23.3836 34.1314 23.458C33.9547 23.5323 33.7599 23.5526 33.5717 23.5163C33.3835 23.4799 33.2103 23.3886 33.074 23.2538C32.9377 23.119 32.8444 22.9469 32.806 22.7591C32.7675 22.5713 32.7856 22.3763 32.858 22.1988C32.9303 22.0213 33.0537 21.8692 33.2125 21.7618C33.3713 21.6544 33.5583 21.5965 33.75 21.5955C34.0069 21.5945 34.2537 21.6954 34.4364 21.876C34.6191 22.0567 34.7227 22.3023 34.7246 22.5592Z" fill="white"/>
<path d="M21.1087 11.456C22.2736 11.5393 26.4855 12.9053 27.5725 13.6516C26.6667 11.0248 23.6178 10.6752 21.1087 11.456Z" fill="#009345"/>
<path d="M22.2174 18.0991C22.2177 18.9834 21.9559 19.8479 21.4649 20.5834C20.9739 21.3188 20.2759 21.8922 19.459 22.2309C18.6422 22.5696 17.7433 22.6585 16.8759 22.4864C16.0085 22.3142 15.2117 21.8887 14.5862 21.2637C13.9606 20.6386 13.5345 19.8422 13.3616 18.9749C13.1888 18.1077 13.2769 17.2087 13.615 16.3916C13.9531 15.5745 14.5259 14.876 15.2609 14.3844C15.996 13.8928 16.8603 13.6303 17.7446 13.6299V13.6299C18.9297 13.6299 20.0664 14.1005 20.9048 14.9381C21.7431 15.7758 22.2146 16.9121 22.2156 18.0973L22.2174 18.0991Z" fill="white"/>
<path d="M20.8913 18.139C20.8913 18.761 20.7068 19.369 20.3613 19.8862C20.0157 20.4034 19.5245 20.8065 18.9499 21.0445C18.3752 21.2825 17.7429 21.3448 17.1328 21.2235C16.5228 21.1021 15.9624 20.8026 15.5226 20.3628C15.0827 19.9229 14.7832 19.3626 14.6619 18.7525C14.5405 18.1424 14.6028 17.5101 14.8408 16.9354C15.0789 16.3608 15.482 15.8696 15.9991 15.524C16.5163 15.1785 17.1244 14.994 17.7464 14.994C18.5805 14.994 19.3804 15.3254 19.9702 15.9152C20.56 16.5049 20.8913 17.3049 20.8913 18.139Z" fill="#58595B"/>
<path d="M38.346 24.5303C34.7228 27.0828 30.6033 29.0194 24.7591 29.0194C22.0235 29.0194 21.4692 26.1208 19.6612 27.5375C18.7283 28.273 15.4384 29.9179 12.8279 29.7929C10.2174 29.6679 5.98551 28.1389 4.80616 22.5647C4.33877 28.1389 4.09964 32.2422 2 36.9469C6.16667 43.619 16.1014 48.7658 25.1196 46.5484C24.1576 39.7821 30.0797 33.1553 33.4022 29.7694C34.6703 28.485 37.0797 26.3889 38.346 24.5321V24.5303Z" fill="#8BC53F"/>
<path d="M38.2047 24.6969C37.0797 25.7223 35.7409 26.4813 34.3786 27.1516C32.9994 27.8057 31.562 28.3291 30.0851 28.715C28.6069 29.0973 27.0652 29.3853 25.5036 29.244C23.942 29.1027 22.346 28.5719 21.3116 27.4016L21.3605 27.3455C22.6286 28.1679 24.0924 28.4578 25.5489 28.4995C27.0253 28.5448 28.502 28.4233 29.9511 28.1371C31.4148 27.8303 32.8468 27.3876 34.2282 26.8147C35.6105 26.244 36.9782 25.5828 38.1558 24.6408L38.2047 24.6969Z" fill="#58595B"/>
<path d="M1 37H4.84H10.6L19.24 40L25 45.5V49H12.04H6.76H3.4L2 48L1 46V37Z" fill="#8BC53F"/>
</svg>
