<svg width="50" height="50" viewBox="0 0 50 50" fill="none" xmlns="http://www.w3.org/2000/svg">
<rect width="50" height="50" rx="5" fill="#006CFF"/>
<path d="M45.5083 23.1961L36.8635 8.76678C36.533 8.22851 36.0624 7.78246 35.4982 7.47264C34.934 7.16281 34.2956 6.99991 33.646 7H16.3546C15.7025 7.00013 15.0619 7.16541 14.4972 7.47925C13.9324 7.79309 13.4634 8.24445 13.1371 8.78799L4.49237 23.212C4.16969 23.7567 4 24.3729 4 25C4 25.627 4.16969 26.2433 4.49237 26.788L13.1371 41.212C13.4619 41.7568 13.9306 42.2091 14.4957 42.5231C15.0608 42.8371 15.7021 43.0017 16.3546 43H33.6442C34.2963 42.9999 34.9369 42.8346 35.5016 42.5207C36.0664 42.2069 36.5354 41.7555 36.8617 41.212L45.5064 26.788C45.8296 26.2406 45.9997 25.6219 46 24.9923C46.0003 24.3627 45.8309 23.7438 45.5083 23.1961ZM24.9994 37.3745V34.9011C27.0355 34.9011 29.0259 34.3198 30.7189 33.2309C32.4119 32.142 33.7314 30.5943 34.5106 28.7835C35.2898 26.9727 35.4936 24.9802 35.0964 23.0578C34.6992 21.1355 33.7187 19.3697 32.2789 17.9838C30.8392 16.5979 29.0048 15.6541 27.0078 15.2717C25.0108 14.8893 22.9409 15.0856 21.0597 15.8356C19.1786 16.5857 17.5708 17.8558 16.4396 19.4855C15.3084 21.1152 14.7046 23.0312 14.7046 24.9912C14.6988 27.1524 15.4365 29.2547 16.8025 30.97L18.6599 29.2279C17.7576 27.985 17.2768 26.5039 17.2833 24.9876C17.2833 23.5154 17.7368 22.0763 18.5865 20.8523C19.4362 19.6282 20.6438 18.6741 22.0568 18.1108C23.4697 17.5474 25.0245 17.4 26.5245 17.6872C28.0244 17.9744 29.4023 18.6833 30.4837 19.7243C31.5651 20.7653 32.3016 22.0916 32.5999 23.5355C32.8983 24.9794 32.7452 26.476 32.1599 27.8361C31.5746 29.1962 30.5835 30.3587 29.3119 31.1766C28.0403 31.9945 26.5453 32.4311 25.0159 32.4311V29.9576C26.035 29.9548 27.0303 29.6614 27.8762 29.1143C28.7222 28.5673 29.3807 27.7912 29.7687 26.8841C30.1566 25.977 30.2566 24.9796 30.056 24.0178C29.8555 23.0561 29.3633 22.1731 28.6417 21.4804C27.92 20.7878 27.0014 20.3165 26.0017 20.1261C25.002 19.9358 23.9661 20.0349 23.0249 20.4109C22.0837 20.787 21.2793 21.4231 20.7134 22.2389C20.1476 23.0548 19.8456 24.0137 19.8456 24.9947C19.8424 25.8634 20.08 26.7173 20.5338 27.4682L22.4555 25.6643C22.3914 25.4489 22.3592 25.2258 22.3601 25.0018C22.3601 24.4989 22.515 24.0074 22.8052 23.5893C23.0954 23.1712 23.5079 22.8453 23.9905 22.6529C24.4731 22.4605 25.0042 22.4101 25.5165 22.5082C26.0288 22.6063 26.4994 22.8484 26.8688 23.204C27.2382 23.5596 27.4897 24.0126 27.5916 24.5058C27.6936 24.9989 27.6412 25.5101 27.4413 25.9747C27.2414 26.4393 26.9029 26.8363 26.4686 27.1157C26.0342 27.3951 25.5236 27.5442 25.0012 27.5442C24.7451 27.5421 24.491 27.5003 24.2487 27.4205L17.6045 33.6608C17.5425 33.7203 17.4728 33.772 17.3971 33.8145C17.3806 33.8304 17.3494 33.8304 17.3329 33.8445C17.2831 33.8765 17.2295 33.9026 17.1732 33.9223C17.142 33.9382 17.109 33.9382 17.0778 33.9523L16.9328 33.9982C16.9018 33.9975 16.871 34.0035 16.8428 34.0159C16.7951 34.0159 16.7474 34.0318 16.7144 34.0318C16.6666 34.0318 16.6189 34.0159 16.5694 34.0159C16.5313 34.0172 16.4934 34.0118 16.4574 34L16.3124 33.9541C16.2812 33.9382 16.2482 33.9382 16.217 33.924C16.1654 33.9042 16.1166 33.8781 16.072 33.8463C16.043 33.8345 16.0159 33.8191 15.9912 33.8003C15.945 33.7683 15.902 33.7323 15.8627 33.6926C15.8462 33.6767 15.815 33.6625 15.7985 33.6307C13.7282 31.583 12.4575 28.9089 12.202 26.0621C11.9465 23.2153 12.7219 20.371 14.3966 18.0118C16.0714 15.6526 18.5424 13.9237 21.3905 13.1184C24.2386 12.3131 27.2884 12.481 30.0226 13.5936C32.7567 14.7062 35.0069 16.695 36.3913 19.2226C37.7757 21.7502 38.2092 24.661 37.6182 27.4613C37.0272 30.2615 35.4481 32.7787 33.1488 34.5859C30.8495 36.3931 27.9715 37.379 25.0031 37.3763L24.9994 37.3745Z" fill="white"/>
</svg>
